<?xml version="1.0" standalone="no"?>
<!DOCTYPE svg PUBLIC "-//W3C//DTD SVG 20010904//EN"
 "http://www.w3.org/TR/2001/REC-SVG-20010904/DTD/svg10.dtd">
<svg version="1.0" xmlns="http://www.w3.org/2000/svg"
 width="225.000000pt" height="225.000000pt" viewBox="0 0 225.000000 225.000000"
 preserveAspectRatio="xMidYMid meet">

<g transform="translate(0.000000,225.000000) scale(0.100000,-0.100000)"
fill="#ff0000" stroke="none">
<path d="M1355 1872 c-98 -105 -101 -108 -118 -185 l-19 -77 -107 0 c-163 0
-361 -28 -361 -51 0 -5 26 -16 58 -26 49 -16 94 -18 322 -17 267 1 357 11 367
41 5 15 -53 31 -144 39 -40 4 -73 11 -73 15 0 4 7 33 15 64 16 62 42 99 139
195 36 35 66 69 66 74 0 9 -30 35 -40 36 -3 0 -51 -48 -105 -108z m-75 -334
c0 -5 -22 -8 -50 -8 -27 0 -50 3 -50 8 0 4 23 7 50 7 28 0 50 -3 50 -7z"/>
<path d="M755 1498 c5 -22 20 -161 32 -301 l6 -69 35 67 c36 67 68 99 115 110
43 11 100 -59 66 -80 -6 -4 -17 2 -25 14 -18 26 -55 27 -76 4 -54 -63 -96
-179 -74 -208 10 -13 15 -13 44 7 18 13 44 47 58 76 51 103 66 72 28 -59 -30
-106 -40 -129 -56 -129 -7 0 -9 15 -4 46 l6 45 -26 -20 c-15 -12 -38 -21 -51
-21 -24 0 -25 -2 -19 -42 3 -24 8 -76 12 -117 11 -122 42 -136 299 -136 142 1
179 4 225 20 l55 20 11 100 c6 55 14 121 16 147 l5 46 -38 -20 c-78 -40 -105
3 -43 71 38 43 34 55 -8 22 -13 -11 -44 -63 -68 -115 -23 -53 -49 -96 -56 -96
-19 0 -17 27 6 79 11 24 20 45 20 46 0 2 -14 -3 -31 -12 -21 -11 -34 -12 -41
-5 -7 7 -19 7 -36 1 -19 -7 -29 -6 -40 5 -12 12 -18 12 -43 -3 -37 -21 -65 -6
-62 34 3 36 44 118 62 123 15 5 14 -1 -14 -77 -9 -24 -14 -46 -11 -48 10 -10
46 23 67 61 29 55 40 67 50 61 4 -3 -1 -30 -13 -61 -11 -30 -18 -58 -14 -61
16 -17 40 18 75 113 44 116 58 144 71 144 19 0 10 -46 -30 -145 -32 -83 -36
-101 -24 -103 22 -5 61 35 76 75 11 31 38 47 38 22 0 -5 10 -3 22 5 32 22 65
20 73 -4 7 -21 0 -34 -44 -82 -29 -33 -21 -36 25 -7 37 22 37 24 54 184 6 55
15 138 20 185 13 115 13 113 -7 105 -10 -4 -67 -13 -128 -21 -169 -20 -482 -8
-576 21 -17 6 -19 3 -14 -17z"/>
<path d="M885 641 c19 -38 24 -68 30 -171 3 -69 9 -128 13 -131 45 -42 349
-42 394 0 4 3 10 67 13 141 6 105 11 142 26 168 10 18 19 35 19 36 0 2 -28 -4
-62 -12 -85 -21 -312 -21 -395 0 l-62 15 24 -46z"/>
</g>
</svg>
